#tb 0: 1/25
#media_type 0: video
#codec_id 0: h264
#dimensions 0: 352x288
#sar 0: 0/1
0,         -3,          0,        1,    17825, 0x5531d052
0,         -2,          1,        1,    15832, 0x048ba13d
0,         -1,          2,        1,    16050, 0x6d48467e
0,          0,          3,        1,    16053, 0x706af472
0,          1,          4,        1,    16119, 0x07442f22
0,          2,          5,        1,    16151, 0x2f3234b7
0,          3,          6,        1,    16308, 0x682ab7c9
0,          4,          7,        1,    16487, 0x8019fc0c
0,          5,          8,        1,    16491, 0x4dde0efa
0,          6,          9,        1,    16711, 0xea2b5447
0,          7,         10,        1,    16825, 0xab46c41a
0,          8,         11,        1,    17201, 0x0dafc45c
0,          9,         12,        1,    17454, 0x29d10975
0,         10,         13,        1,    17586, 0xfb5e3a85
0,         11,         14,        1,    17705, 0x9b8f6dbe
0,         12,         15,        1,    17961, 0x6a20f199
0,         13,         16,        1,    18199, 0x5aa26464
0,         14,         17,        1,    18343, 0x1417c0ff
0,         15,         18,        1,    18687, 0xc6c068b3
0,         16,         19,        1,    18864, 0x266bc118
0,         17,         20,        1,    18988, 0x28ded45b
0,         18,         21,        1,    19315, 0xf62e98c8
0,         19,         22,        1,    19482, 0xcab718c3
0,         20,         23,        1,    19799, 0xfada5e11
0,         21,         24,        1,    20001, 0xa2ba05eb
0,         22,         25,        1,    20202, 0xf64174b3
0,         23,         26,        1,    20383, 0xde61ed82
0,         24,         27,        1,    20486, 0xfee7cb96
0,         25,         28,        1,    20640, 0xd21635cf
0,         26,         29,        1,    20821, 0x122789ca
0,         27,         30,        1,    20961, 0xf39a0797
0,         28,         31,        1,    21087, 0x28ce0e14
0,         29,         32,        1,    21287, 0x1bf66535
0,         30,         33,        1,    21462, 0xd92bdc5e
0,         31,         34,        1,    21603, 0x98211f19
0,         32,         35,        1,    21822, 0x2c23798d
0,         33,         36,        1,    22109, 0x559a4d69
0,         34,         37,        1,    22252, 0x1b8c52fc
0,         35,         38,        1,    22460, 0xce228dd0
0,         36,         39,        1,    22545, 0xf2bb1c62
0,         37,         40,        1,    22713, 0xe9c54208
0,         38,         41,        1,    22950, 0xf81e6bd2
0,         39,         42,        1,    23084, 0x741b091d
0,         40,         43,        1,    23127, 0x8e5a6a0c
0,         41,         44,        1,    23205, 0x6ffd484a
0,         42,         45,        1,    23228, 0x256a2b65
0,         43,         46,        1,    23272, 0xb2e142c2
0,         44,         47,        1,    23311, 0xbb0049a2
0,         45,         48,        1,    23321, 0x432b6e05
0,         46,         49,        1,    23395, 0x9afd5e8e
